<?xml version="1.0" encoding="UTF-8"?>
<svg width="108px" height="24px" viewBox="0 0 108 24" version="1.1" xmlns="http://www.w3.org/2000/svg" xmlns:xlink="http://www.w3.org/1999/xlink">
    <title>Straw</title>
    <g id="Symbols" stroke="none" stroke-width="1" fill="none" fill-rule="evenodd">
        <g id="ðŸ°-Components/Menu/Desktop-Scrolling" transform="translate(-30.000000, -24.000000)" fill="#FF009B" fill-rule="nonzero">
            <g id="STRAW-2" transform="translate(30.000000, 24.000000)">
                <polygon id="Path" points="70.0075963 19.0898318 72.0130222 23.1006837 76.388497 23.1006837 74.3830711 19.0898318"></polygon>
                <polygon id="Path" points="64.9028757 0.129441129 53.4172545 23.1006837 57.7927292 23.1006837 64.9028757 8.87492132 64.9028757 8.87492132 68.2774607 15.6259143 72.6511123 15.6259143"></polygon>
                <polygon id="Path" points="20.9658166 0.129441129 20.9658166 23.1006837 25.3412914 20.1618231 25.3412914 3.7756701 32.4514379 3.7756701 32.4514379 0.129441129"></polygon>
                <path d="M6.7455236,9.60963646 C5.23520611,9.60963646 4.01085187,8.38528222 4.01085187,6.87496473 C4.01085187,5.36464724 5.23520611,4.140293 6.7455236,4.140293 L6.7455236,0.129441129 C4.3355801,0.129441129 2.10870045,1.4151306 0.903728682,3.50220289 C-0.301243084,5.58927518 -0.301243084,8.16065429 0.903728682,10.2477266 C2.10870045,12.3347989 4.3355801,13.6204884 6.7455236,13.6204883 L12.3971785,13.6204883 C13.907496,13.6204883 15.1318502,14.8448426 15.1318502,16.3551601 C15.1318502,17.8654776 13.907496,19.0898318 12.3971785,19.0898318 L12.3971785,23.1006837 C16.1226283,23.1006837 19.1427021,20.0806099 19.1427021,16.3551601 C19.1427021,12.6297102 16.1226283,9.60963646 12.3971785,9.60963646 L6.7455236,9.60963646 L6.7455236,9.60963646 Z" id="Path"></path>
                <polygon id="Path" points="75.2946283 0.129441129 70.9191536 0.129441129 80.3993489 19.0898318 82.5870863 14.714357"></polygon>
                <polygon id="Path" points="95.7135106 14.714357 102.823657 0.129441129 107.199132 0.129441129 95.7135106 23.1006837 88.4210526 8.88039067 90.60879 4.5049159"></polygon>
                <path d="M51.9587629,8.05998915 C51.9587629,3.68451438 48.8594683,0.129441129 45.0309278,0.129441129 L34.2745524,0.129441129 L34.2745524,14.5320456 L38.6500271,11.6150624 L38.6500271,4.5049159 L45.0309278,4.5049159 C46.4128486,4.5049159 47.5832881,6.13295714 47.5832881,8.05998915 C47.5832881,9.98702116 46.4146717,11.6150624 45.0309278,11.6150624 L45.0309278,11.6150624 L40.6554531,11.6150624 L47.2186652,23.1006837 L51.59414,23.1006837 L47.2842973,15.558459 C50.0007379,14.4864677 51.9587629,11.5311991 51.9587629,8.05998915 Z" id="Path"></path>
            </g>
        </g>
    </g>
</svg>